<svg width="193" height="193" fill="none" xmlns="http://www.w3.org/2000/svg"><path d="M87 122.27c28.42-16.2 41.44-24.85 45-17.79 2.22 3.96-11.19 10.22-17.83 15.2 9.2-4.62 24.92-14.46 27.84-9.74 4.39 5.53-11.04 12.45-17.37 18.23 5.8-2.73 20.02-14.5 24.44-10.43 5.3 5.44-11.96 23.21-58.13 54.26M123 44.88A489.14 489.14 0 0 1 22.28 95c-4.2-12.6-8-25.97-5.45-39 2.55-13.03 13.5-25.37 26.78-25 11.28.33 20.43 9.27 26.54 18.75 19.68-7.97 33.46-8.64 52.84-4.87M65 132.5c-3.7 1.78-7.47 3.6-11.54 4.26-4.07.66-8.56.02-11.67-2.63-3.74-3.2-4.7-8.77-3.18-13.38 1.52-4.62 5.14-8.33 9.25-11.04-2.86 4.03-5.86 8.17-10.15 10.71-4.3 2.54-10.28 3.04-14.08-.17a10.65 10.65 0 0 1-3.48-6.57c-.78-5.14 1.6-10.35 5.11-14.24 3.52-3.9 8.1-6.7 12.62-9.44" stroke="#3B3748" stroke-width="4" stroke-linecap="round" stroke-linejoin="round"/><path d="M171.5 70c2.52 7.94 5.07 16.12 4.39 24.41-.68 8.3-5.36 16.83-13.33 19.64-6.47 2.27-13.99.29-19.28-4.02-5.3-4.3-8.56-10.64-10.28-17.18M175 86l-35 19" stroke="#3B3748" stroke-width="4" stroke-linecap="round" stroke-linejoin="round"/><path d="M150.03 82c4.56-1.09 7.34-6.1 6.93-10.69-.4-4.58-3.34-8.62-6.86-11.65-3.52-3.03-7.68-5.27-11.52-7.92-3.84-2.64-7.49-5.85-9.36-10.07-3.04-6.87-.2-15.74 6.31-19.67M97 61c13.37 9.82 23.71 24.42 29 41M96 79a9.8 9.8 0 0 1-2.32 3.72A9.46 9.46 0 0 1 90 85" stroke="#3B3748" stroke-width="4" stroke-linecap="round" stroke-linejoin="round"/></svg>