<svg width="60" height="44" fill="none" xmlns="http://www.w3.org/2000/svg">
    <path d="M12.25 0h-7.1l.02 15.2H7.7V2.3h4.56V0Z" fill="#3B3748"/>
    <path fill-rule="evenodd" clip-rule="evenodd"
          d="M7.85 25.45H5.4v3.53c-.96.12-1.88.43-2.72.9A5.33 5.33 0 0 0 0 34.58c-.02.97.23 1.92.71 2.76a5.39 5.39 0 0 0 1.98 1.95c.84.48 1.76.78 2.72.9v3.52h2.44V40.2a7.4 7.4 0 0 0 2.72-.91 5.39 5.39 0 0 0 1.97-1.95l-.15-.1.15.1c.48-.84.73-1.79.71-2.75a5.38 5.38 0 0 0-.7-2.76 5.43 5.43 0 0 0-1.98-1.95 7.48 7.48 0 0 0-2.72-.9v-3.53Zm-2.46 12.4A3.9 3.9 0 0 1 3.3 36.8a3 3 0 0 1-.81-2.21v-.02a3.02 3.02 0 0 1 .81-2.2c.57-.55 1.3-.92 2.08-1.05v6.52Zm5.14-2.07c-.14.38-.35.72-.63 1.02-.57.54-1.3.9-2.08 1.03v-6.5c.78.13 1.5.5 2.08 1.04a3.05 3.05 0 0 1 .82 2.21v.02c.01.4-.05.8-.19 1.18ZM20.95 2.28c1.06.78 1.8 2 2.06 3.53l.16.91-8.1 1.43c.25.77.68 1.38 1.23 1.77.6.42 1.36.6 2.2.45.76-.13 1.31-.42 1.72-.83.42-.41.7-.97.9-1.64l.06-.18 2.03.75-.03.15a5.06 5.06 0 0 1-4.34 3.94c-2.9.5-5.7-1.3-6.29-4.6A5.43 5.43 0 0 1 17 1.44c1.52-.27 2.9.05 3.96.83ZM17.3 3.47a2.97 2.97 0 0 1 1.97.28c.5.28.91.74 1.14 1.38l-5.6 1a3.06 3.06 0 0 1 2.49-2.66ZM34.95 0h-8.1l-.26 4.7c-.1 1.85-.37 2.86-.8 3.69h-1.14v4.7h2.3v-2.41h7.2v2.41h2.34V8.4h-1.54V0Zm-6.1 4.8.14-2.5h3.46V8.4l-4.24.01c.38-.84.53-1.74.64-3.6Z"
          fill="#3B3748"/>
    <path d="M11.99 15.78h2.51v4.02h4.43v-4.02h2.52v10.68h-2.52v-4.43H14.5v4.43H12V15.78ZM26.45 15.78H24v10.68h2.56l4.64-7.04v7.04h2.44V15.78h-2.56l-4.64 7.03v-7.03ZM41.16 15.56a4.86 4.86 0 0 0-3.11.34 2.72 2.72 0 0 0-1.47 1.97c-.07.36-.07.73 0 1.08l.03.17 2.25-.33-.02-.17a1.28 1.28 0 0 1 0-.39c.04-.22.22-.43.56-.56.34-.13.8-.17 1.35-.08.56.1.93.28 1.15.51.21.23.3.5.23.84-.06.35-.23.62-.52.78-.29.17-.72.24-1.32.13l-1-.17-.35 2.04 1.03.18c.65.12 1.11.32 1.4.6.26.25.37.58.3 1-.08.42-.31.74-.68.93-.38.2-.92.27-1.61.15-.51-.09-.97-.3-1.28-.59-.3-.29-.46-.65-.38-1.08.02-.16.08-.32.17-.45l.1-.17-2-1.07-.09.14c-.24.36-.4.76-.47 1.19a3.1 3.1 0 0 0 .68 2.6c.62.73 1.6 1.26 2.9 1.49 1.42.25 2.6.08 3.46-.4a3.1 3.1 0 0 0 1.6-2.23c.12-.69-.02-1.3-.34-1.8-.25-.38-.6-.7-1.01-.96a2.61 2.61 0 0 0 1.81-2.1c.14-.82-.03-1.6-.6-2.25a4.65 4.65 0 0 0-2.77-1.34ZM49.84 15.78h-3.2l-.02 10.68h2.43v-6.58l2.68 6.58h2.05l2.7-6.59v6.59h2.41V15.78h-3.22l-2.91 7.55-2.92-7.55Z"
          fill="#3B3748"/>
    <path fill-rule="evenodd" clip-rule="evenodd"
          d="M23.08 29.84c1.06.78 1.8 2 2.07 3.53l.16.92-8.09 1.42c.24.77.67 1.38 1.22 1.77.6.43 1.36.6 2.2.46a3.08 3.08 0 0 0 1.72-.84c.42-.41.7-.96.9-1.64l.05-.18 2.04.75-.03.15a5.07 5.07 0 0 1-4.34 3.94c-2.9.51-5.7-1.31-6.29-4.6a5.43 5.43 0 0 1 4.45-6.5 5.06 5.06 0 0 1 3.94.82Zm-3.64 1.2a2.98 2.98 0 0 1 1.98.27c.5.29.91.75 1.14 1.39l-5.62 1.01a3.06 3.06 0 0 1 2.5-2.68Z"
          fill="#3B3748"/>
    <path d="M27.16 32.43a5.5 5.5 0 0 0-.38 2.16 5.39 5.39 0 0 0 5.54 5.6 5.2 5.2 0 0 0 4.76-2.77l.08-.15-2.04-1.25-.08.18a2.8 2.8 0 0 1-2.7 1.65h-.02c-.86 0-1.6-.32-2.13-.88a3.43 3.43 0 0 1-.85-2.4c0-1.02.34-1.84.87-2.4a2.87 2.87 0 0 1 2.11-.87h.01a2.75 2.75 0 0 1 2.6 1.58l.08.18 2.08-1.25-.07-.15c-.78-1.76-2.4-2.7-4.7-2.7a5.48 5.48 0 0 0-5.16 3.47ZM38.16 29.25h8.99v2.3h-3.22v8.38H41.4l-.02-8.4h-3.23v-2.28ZM51.74 6.45a.74.74 0 0 0 0 1.48h7.52a.74.74 0 0 0 0-1.48h-7.52ZM37.5 6.84c0-2.94 2.3-5.33 5.2-5.6l.12.06.3.8-.04.13a5 5 0 0 0-2.14 4.08 5.09 5.09 0 0 0 3.87 4.9l.08.1v.85l-.07.1a5.7 5.7 0 0 1-7.32-5.43ZM44.45 1.48l.12-.07a5.41 5.41 0 0 1 4.84 5.28c0 1.76-.9 3.32-2.27 4.28H47l-.63-.59-.02-.13c.48-.84.75-1.8.75-2.82a5.87 5.87 0 0 0-2.89-5l-.04-.13.28-.82Z"
          fill="#3B3748"/>
</svg>
