<svg width="24" height="24" fill="none" xmlns="http://www.w3.org/2000/svg"><g clip-path="url(#a)" fill="#3B3748"><path d="M12 6a4 4 0 1 0 0 8 4 4 0 0 0 0-8Zm0 6a2 2 0 1 1 0-4 2 2 0 0 1 0 4Z"/><path d="M12 24a5.27 5.27 0 0 1-4.31-2.2c-3.81-5.26-5.74-9.2-5.74-11.75a10.05 10.05 0 0 1 20.1 0c0 2.54-1.93 6.5-5.74 11.75A5.27 5.27 0 0 1 12 24Zm0-21.82a7.88 7.88 0 0 0-7.87 7.88c0 2 1.89 5.72 5.33 10.46a3.14 3.14 0 0 0 5.09 0c3.43-4.74 5.32-8.46 5.32-10.46A7.88 7.88 0 0 0 12 2.17Z"/></g><defs><clipPath id="a"><path fill="#fff" d="M0 0h24v24H0z"/></clipPath></defs></svg>