<svg width="48" height="48" fill="none" xmlns="http://www.w3.org/2000/svg"><path fill-rule="evenodd" clip-rule="evenodd" d="M0 24a24 24 0 1 1 48 0 24 24 0 0 1-48 0Zm25.26 7.88s.46-.05.7-.3c.21-.23.2-.66.2-.66s-.03-2.02.93-2.32c.94-.29 2.14 1.95 3.42 2.81.97.66 1.7.51 1.7.51l3.42-.04s1.79-.11.94-1.5c-.07-.1-.5-1.01-2.54-2.88-2.14-1.95-1.86-1.64.73-5.02 1.57-2.05 2.2-3.3 2-3.85-.19-.5-1.34-.37-1.34-.37l-3.85.02s-.29-.04-.5.09c-.2.12-.34.4-.34.4s-.6 1.6-1.42 2.95c-1.72 2.85-2.4 3-2.68 2.83-.65-.42-.5-1.66-.5-2.55 0-2.77.44-3.92-.82-4.22a6.7 6.7 0 0 0-1.8-.18c-1.37-.01-2.54 0-3.2.32-.43.21-.77.68-.56.71.25.03.83.15 1.13.56.4.53.38 1.71.38 1.71s.23 3.26-.53 3.66c-.52.28-1.23-.28-2.76-2.88-.78-1.32-1.37-2.8-1.37-2.8s-.11-.27-.32-.41c-.24-.18-.59-.24-.59-.24l-3.66.03s-.55.01-.75.25c-.18.2-.01.64-.01.64s2.86 6.57 6.1 9.89c2.98 3.04 6.36 2.84 6.36 2.84h1.53Z" fill="#3B3748"/></svg>